<?xml version="1.0" standalone="no"?><!DOCTYPE svg PUBLIC "-//W3C//DTD SVG 1.1//EN" "http://www.w3.org/Graphics/SVG/1.1/DTD/svg11.dtd"><svg t="1534855062789" class="icon" style="" viewBox="0 0 1024 1024" version="1.1" xmlns="http://www.w3.org/2000/svg" p-id="14377" xmlns:xlink="http://www.w3.org/1999/xlink" width="200" height="200"><defs><style type="text/css"></style></defs><path d="M831.488 339.456c0.512 0 0.512 0 0 0 82.944 0 150.528-66.56 150.528-148.992 0-81.92-67.072-148.992-150.016-148.992s-150.016 66.56-150.016 148.992c0 11.776 1.536 23.552 4.096 34.816L316.928 428.544c-4.608-4.096-9.216-8.704-13.824-12.288L373.76 251.904c19.968-4.096 38.4-14.336 52.736-28.672 41.472-40.96 41.984-108.032 1.024-149.504l-1.024-1.024c-19.968-19.968-47.104-31.232-75.264-31.232-28.672 0-55.296 11.264-75.776 31.232-19.968 19.968-31.232 46.592-31.232 74.752s10.752 54.784 30.72 75.264l1.024 1.024c7.68 7.68 16.384 13.824 25.6 18.944l-63.488 143.36c-11.264-2.56-22.528-3.584-34.304-3.584-89.088 0-161.28 71.68-161.28 160.256s72.192 160.256 161.28 160.256h0.512c53.76 0 103.936-26.624 133.632-70.656l208.384 112.64c-3.072 13.824-4.608 27.648-4.608 41.984 0 108.032 88.576 196.096 197.632 196.096s197.632-88.064 197.632-196.096c0-108.032-88.576-196.096-197.632-196.096h-0.512c-66.56 0-128.512 33.792-164.864 88.576L363.52 565.76c3.584-26.112 1.024-52.224-7.68-76.288l363.52-200.192c27.648 31.232 69.12 50.176 112.128 50.176zM314.88 147.968c0-9.216 3.584-18.432 10.24-25.088 6.656-6.656 15.872-10.24 25.6-10.24 19.456 0 35.84 15.872 35.84 35.328 0 19.456-15.872 35.328-35.84 35.328-19.456 0-35.84-15.872-35.84-35.328z m-21.504 394.24c0 49.152-40.448 89.088-90.112 89.088s-90.112-39.936-90.112-89.088c0-49.152 40.448-89.088 90.112-89.088s90.112 39.424 90.112 89.088z m318.976 243.712c0-33.28 13.312-65.024 36.864-88.576 23.552-23.552 55.296-36.864 89.088-36.864h1.024c33.28 0 65.024 12.8 88.576 36.864 23.552 23.04 36.864 55.296 36.864 88.576 0 32.768-13.312 65.024-36.864 88.576-23.552 23.552-55.296 36.352-88.576 36.352h-1.024c-33.28 0-65.024-12.8-88.576-36.864-24.064-23.04-37.376-55.296-37.376-88.064z m140.8-595.456c0-43.008 35.328-77.824 78.848-77.824s78.848 34.816 78.848 77.824c0 43.008-35.328 77.824-78.336 77.824-44.032 0-79.36-34.816-79.36-77.824z" p-id="14378" fill="#13227a"></path></svg>