<?xml version="1.0" standalone="no"?><!DOCTYPE svg PUBLIC "-//W3C//DTD SVG 1.1//EN" "http://www.w3.org/Graphics/SVG/1.1/DTD/svg11.dtd"><svg t="1534856564304" class="icon" style="" viewBox="0 0 1024 1024" version="1.1" xmlns="http://www.w3.org/2000/svg" p-id="15216" xmlns:xlink="http://www.w3.org/1999/xlink" width="200" height="200"><defs><style type="text/css"></style></defs><path d="M308.736 488.448c0 30.208 24.576 55.808 55.808 55.808s55.808-24.576 55.808-55.808c0-30.208-24.576-55.808-55.808-55.808s-55.808 24.576-55.808 55.808zM647.168 432.128c-31.232 0-55.296 24.576-55.296 56.32 0 30.72 24.576 56.32 56.32 56.32s55.296-25.6 55.296-56.32c-0.512-30.208-25.088-56.32-56.32-56.32zM882.176 770.048c-4.608-5.12-10.752-8.704-17.408-8.704-13.824 0-24.064 10.24-24.064 24.064 0 55.808-45.568 101.376-101.376 101.376s-101.376-45.568-101.376-101.376c0-13.824-10.24-24.064-24.064-24.064s-24.064 10.24-24.064 24.064c0 37.888 13.824 74.24 38.4 100.352 22.528 24.064 52.736 40.448 84.992 46.08v18.432h-37.888c-13.824 0-24.064 10.24-24.064 24.064s10.24 24.064 24.064 24.064h125.44c13.824 0 24.064-10.24 24.064-24.064s-10.24-24.064-24.064-24.064H762.88V931.84c32.256-5.632 62.464-22.016 84.992-46.08 24.576-26.112 38.4-62.976 38.4-99.84 2.048-5.632 0-11.264-4.096-15.872z" p-id="15217" fill="#1296db"></path><path d="M674.304 767.488c0 41.984 28.672 75.264 64.512 75.264s64.512-33.28 64.512-75.264v-59.392c0-41.984-28.672-75.264-64.512-75.264s-64.512 33.28-64.512 75.264v59.392z" p-id="15218" fill="#1296db"></path><path d="M983.552 491.008c0-46.08-36.864-83.456-82.944-84.48V273.92c0-31.744-27.136-58.88-58.88-58.88h-305.152l0.512-56.832c24.576-10.752 40.448-34.816 40.448-62.976 0-38.4-31.232-69.632-69.632-69.632s-69.632 31.232-69.632 69.632c0 28.672 17.408 53.248 42.496 64L479.744 215.04H181.248c-14.848-1.024-29.184 4.608-40.448 15.36-11.776 11.264-18.432 27.136-18.432 43.52v132.608c-45.568 1.536-81.92 38.4-81.92 84.48s36.352 82.944 81.92 84.48v165.888c0 31.744 27.136 58.88 58.88 58.88h167.936v30.72H297.472c-31.744 0-58.88 27.136-58.88 58.88v50.176c0 31.744 27.136 58.88 58.88 58.88h193.024c15.872 0 28.16-12.288 28.16-28.16s-12.288-28.16-28.16-28.16H297.472c-1.536 0-2.048-0.512-2.048-2.048v-50.176c0-1.536 0.512-2.048 2.048-2.048h80.384c15.872 0 28.16-12.288 28.16-28.16v-58.88h110.08c15.872 0 28.16-12.288 28.16-28.16s-12.288-28.16-28.16-28.16H181.248c-1.536 0-2.048-0.512-2.048-2.048V273.92c0-1.536 0.512-2.048 2.048-2.048H839.68c1.536 0 2.048 0.512 2.048 2.048v362.496c0 15.872 12.288 28.16 28.16 28.16h1.536c19.456 0 27.648-18.944 28.16-29.184 0.512-6.656 0.512-29.184 0.512-60.416 46.592-1.024 83.456-38.4 83.456-83.968z" p-id="15219" fill="#1296db"></path></svg>