<?xml version="1.0" standalone="no"?><!DOCTYPE svg PUBLIC "-//W3C//DTD SVG 1.1//EN" "http://www.w3.org/Graphics/SVG/1.1/DTD/svg11.dtd"><svg t="1534735726583" class="icon" style="" viewBox="0 0 1026 1024" version="1.1" xmlns="http://www.w3.org/2000/svg" p-id="1479" xmlns:xlink="http://www.w3.org/1999/xlink" width="200.390625" height="200"><defs><style type="text/css"></style></defs><path d="M53.798 492.956c-5.967 0-11.912-2.439-16.224-7.23-8.035-8.95-7.296-22.714 1.655-30.749l461.566-414.527c8.972-8.035 22.714-7.296 30.749 1.655 8.035 8.95 7.296 22.714-1.655 30.749l-461.544 414.527c-4.16 3.724-9.364 5.575-14.547 5.575zM972.073 492.956c-5.227 0-10.453-1.851-14.634-5.64l-456.731-414.527c-8.907-8.101-9.582-21.864-1.503-30.771 8.122-8.907 21.864-9.56 30.771-1.503l456.731 414.505c8.907 8.101 9.56 21.864 1.481 30.771-4.29 4.747-10.213 7.164-16.115 7.164zM799.663 992l-568.013 0c-10.692 0-19.817-7.752-21.494-18.337l-88.328-551.679c-1.895-11.869 6.185-23.04 18.053-24.956 11.847-2.003 23.04 6.163 24.956 18.053l85.388 533.343 530.86 0 84.8-533.321c1.895-11.869 12.805-20.013 24.935-18.097 11.869 1.895 19.97 13.044 18.075 24.935l-87.74 551.701c-1.677 10.583-10.802 18.358-21.494 18.358zM572.812 981.373c-12.043 0-21.777-9.734-21.777-21.777l0-149.303c-1.612-2.003-16.202-10.627-40.832-10.627-24.608 0-39.199 8.624-41.137 12.239l0.305 147.714c0 12.043-9.757 21.777-21.777 21.777s-21.777-9.734-21.777-21.777l0-149.303c0-30.902 36.28-54.182 84.386-54.182s84.386 23.28 84.386 54.182l0 149.303c0 11.999-9.734 21.756-21.777 21.756z" p-id="1480"></path></svg>