<?xml version="1.0" standalone="no"?><!DOCTYPE svg PUBLIC "-//W3C//DTD SVG 1.1//EN" "http://www.w3.org/Graphics/SVG/1.1/DTD/svg11.dtd"><svg t="1534741353085" class="icon" style="" viewBox="0 0 1024 1024" version="1.1" xmlns="http://www.w3.org/2000/svg" p-id="3443" xmlns:xlink="http://www.w3.org/1999/xlink" width="200" height="200"><defs><style type="text/css"></style></defs><path d="M491.98045 677.661779c-175.838384 0-318.811339-151.981753-318.81134-338.830889S316.142066 0 491.98045 0s318.811339 151.981753 318.811339 338.83089-142.972955 338.83089-318.811339 338.830889z m0-627.612903c-148.144673 0-268.762463 129.459759-268.762464 288.782014s120.617791 288.782014 268.762464 288.782013 268.762463-129.626588 268.762463-288.782013S640.125122 50.048876 491.98045 50.048876z" fill="#3D3D3D" p-id="3444"></path><path d="M958.269143 1024H65.730857a25.024438 25.024438 0 0 1-25.024438-25.024438v-76.241121a412.569567 412.569567 0 0 1 243.070707-375.03291 25.024438 25.024438 0 1 1 20.686869 45.544477A362.68752 362.68752 0 0 0 90.755295 922.734441v51.216683h842.48941v-51.216683a362.85435 362.85435 0 0 0-240.401434-340.332356 25.024438 25.024438 0 1 1 16.682959-47.045943A412.736396 412.736396 0 0 1 983.293581 922.734441v76.241121a25.024438 25.024438 0 0 1-25.024438 25.024438z" fill="#3D3D3D" p-id="3445"></path><path d="M849.496253 939.25057h-116.78071a33.365917 33.365917 0 0 1 0-66.731834h116.78071a33.365917 33.365917 0 1 1 0 66.731834z" fill="#F683A2" p-id="3446"></path></svg>