<?xml version="1.0" standalone="no"?><!DOCTYPE svg PUBLIC "-//W3C//DTD SVG 1.1//EN" "http://www.w3.org/Graphics/SVG/1.1/DTD/svg11.dtd"><svg t="1534813840765" class="icon" style="" viewBox="0 0 1024 1024" version="1.1" xmlns="http://www.w3.org/2000/svg" p-id="16287" xmlns:xlink="http://www.w3.org/1999/xlink" width="200" height="200"><defs><style type="text/css"></style></defs><path d="M635.948522 14.246957c-14.985494-3.446506-26.682926-5.884726-35.090987-7.31597-8.409371-1.429934-19.497903-2.867724-33.262977-4.312061L534.656327 0.563069 480.487775 2.618926l-36.352 3.236992-52.310425 9.611458-50.935488 14.265289-56.784859 24.765872c-13.494015 6.908726-23.613545 12.371806-30.359898 16.387928a6588.647775 6588.647775 0 0 0-26.847918 16.098538l-16.065801 11.227335c-10.844972 8.071529-18.686036 14.105535-23.524501 18.100705-4.837156 3.995171-10.698312 9.04577-17.582159 15.150486l-16.820051 15.540706c-8.614957 8.33735-14.982875 14.796931-19.105064 19.376123-4.122189 4.580501-10.171908 11.518036-18.149156 20.812604-6.023529 6.974199-11.159243 13.431161-15.405831 19.372194-2.937125 4.109095-8.220808 10.444276-12.057534 16.509708-1.141852 1.80313-5.58355 9.073269-13.327714 21.809105l-10.742834 19.243867c-5.41332 10.082864-9.106005 17.229913-11.078056 21.438527a5817.918854 5817.918854 0 0 1-8.295448 17.593944c-5.741995 13.208552-9.441228 22.051355-11.095079 26.531028a589.173197 589.173197 0 0 0-5.011314 14.135652c-2.977719 8.696143-4.845013 14.540276-5.601883 17.533709-0.75687 2.993432-2.185494 8.686977-4.284563 17.079324l-2.879508 10.072389-3.832798 20.959264-3.343059 21.310199c-1.597545 8.635908-2.566547 14.322905-2.908317 17.060992-0.343079 2.736777-1.139233 8.146169-2.39108 16.228174-0.903529 4.529432-1.355294 7.989033-1.355294 10.380113 0 2.38977-0.546046 10.119529-1.636828 23.18666-0.086425 11.021749-0.086425 18.001187 0 20.940931 0.085115 2.938435 0.085115 4.622404 0 5.049289l1.636828 18.636276 2.525954 20.971048c1.204706 6.735877 1.977289 11.798261 2.31775 15.183223 0.34046 3.384962 0.944123 7.759877 1.810987 13.122128l3.343059 17.99202 4.818823 22.725729 6.178046 25.911652 8.047959 23.812584 9.968941 25.863202 13.601392 29.392204 12.62977 24.184471L84.682967 789.789463l24.094117 34.128532 25.023837 30.327161 29.495652 30.003724 34.958731 30.390015 28.643192 20.080614 33.073105 21.665064 41.777105 20.300603 42.245892 17.265269 40.641801 12.631079 32.507417 7.031816 21.590424 4.02398 26.905535 2.740706 18.281412 2.481432h50.73645l28.636644-2.481432 23.499622-2.740706 27.957033-4.025289 27.378251-7.031816 30.069197-8.419847 36.363785-14.208982 27.454199-12.288 29.798138-15.278813 28.330231-18.204154 38.197033-27.315396 31.156051-26.616143 28.912941-30.003724 24.01555-30.327161 19.225535-25.704757 21.582567-31.814711 20.021688-40.610374 18.058803-43.805462 15.035254-49.724236 8.772092-44.904102 4.04624-48.509054v-56.210005l-4.04624-40.71513-5.504982-32.448491-3.26711-14.895141-6.314231-23.957934-5.430342-17.778578-6.548624-19.763723-7.703571-20.785105-10.911754-22.243847-11.58089-23.554619-12.944041-21.608757-20.312389-30.953084-16.412808-22.741443-19.779437-22.292296-16.911714 10.035724-19.173156 6.642905-26.888511 5.613667-27.59955 7.834517-7.694404 14.906926-8.309852 16.592205-6.53422 14.360879-4.962864 15.744982-5.467008 14.062323-6.109954 15.356071-9.074578 15.307622-5.190711 10.889493-8.157954 12.570844-8.694834 11.309832-10.685217 12.714884-10.115601 9.53289-7.158834 3.619356-6.569575 4.626332-9.040532 2.315131h-45.943816l-22.666803 10.513678-14.857167 11.129125-3.746373 9.320757v17.490496l-5.70533 9.394087-18.13999 26.994578-24.297084 29.195785-14.397545 25.338108 18.175345 37.444092 17.168369 37.599918-6.066742 5.986864v4.268849l-43.687611 21.037832-5.067622 8.151406 2.866415 8.011294v4.137903l-31.977085 19.221606c-14.532419 6.197688-22.562046 10.36178-24.090189 12.492277-1.526834 2.129187-2.469647 5.903059-2.82844 11.320307l2.82844 8.621503c3.699233 4.060645 6.735877 6.813136 9.107315 8.260092 3.55912 2.168471 3.411151 4.772992 4.537289 7.441678 0.751632 1.78087 0.751632 3.832798 0 6.157095l-2.70797 4.890844-13.765074 6.993841-16.381381 9.223857-10.475703 7.50977c-3.378414 6.652072-5.019171 10.619744-4.920962 11.903018 0.471407 6.163642 2.679161 9.853708 2.896532 11.091151 0.285463 1.623734 1.886936 5.190711 4.805729 10.695693l5.401534 10.257023c3.323417 2.808798 6.056266 5.920082 8.199857 9.33647 2.143591 3.415079 2.143591 7.446916 0 12.095509l-4.889534 4.41289-13.517586 1.735039-40.036829-3.136164c-1.427315 0.013095-4.512409-0.411171-9.256593-1.276726-4.742875-0.864246-14.207673-2.726302-28.390465-5.586169l-34.449351-10.529391-32.227192-13.186292c-6.58267-2.887366-11.745882-5.336061-15.485708-7.346087-8.952798-4.808348-12.227765-6.604931-18.061422-10.124767-9.489678-5.726281-17.755008-11.582199-24.79468-17.569064l-15.394046-14.150056c-6.590527-7.562148-11.431611-13.309381-14.527182-17.240389-3.09557-3.931008-8.415918-11.216859-15.961044-21.858865l-12.953207-17.899048-14.79824-29.807305-7.744164-16.098537-13.334261-33.458087-6.206854-19.930025c-4.126118-13.649841-6.693974-22.905125-7.706189-27.768471-1.010905-4.862036-2.480123-13.144389-4.407652-24.845749l-3.883867-29.130312-2.048-21.234251v-18.411048l2.048-21.239489 3.883867-22.810844 4.407652-24.523621 5.626762-25.313228 8.286281-28.441534 10.41154-26.532338 14.371355-30.484297 15.031325-26.067478 18.536757-26.538885 20.967121-28.880205 15.394046-16.873739 21.046997-23.462956 21.809105-19.387908 22.91822-17.392287 32.969657-21.442455 29.805995-17.292767 40.902384-20.838793 31.738762-12.422875 27.238138-8.139621 24.264348-6.565647 34.918138-6.793494 17.062302-3.210803c9.920491-0.955908 16.784696-1.588379 20.593923-1.898721 3.809228-0.311652 9.531581-0.311652 17.167059 0l62.287222-1.21911z m55.436112 561.221401c42.820747-20.146087 47.887059-44.284726 74.579151-81.922619 0.838056-1.179826-0.442598 0.136184-1.280655 10.877709-0.115233 1.484931-2.548215 8.218189-2.748562 9.70312-0.477954 3.555192-1.302916 3.247468-2.415959 6.670404-4.423366 13.601391-8.583529 23.400102-14.301954 36.511754-2.671304 6.123049-6.230425 10.58177-9.975489 16.101156-2.972481 4.382772-5.467008 7.001698-8.544245 10.416778-1.695754 1.881698-4.173258 4.491458-6.597074 3.75423-9.742404-2.963315-36.964829 1.283274-45.814179-3.75423l17.098966-8.358302z" p-id="16288" fill="#6f06e0"></path></svg>