<?xml version="1.0" standalone="no"?><!DOCTYPE svg PUBLIC "-//W3C//DTD SVG 1.1//EN" "http://www.w3.org/Graphics/SVG/1.1/DTD/svg11.dtd"><svg t="1535458860223" class="icon" style="" viewBox="0 0 1024 1024" version="1.1" xmlns="http://www.w3.org/2000/svg" p-id="8909" xmlns:xlink="http://www.w3.org/1999/xlink" width="200" height="200"><defs><style type="text/css"></style></defs><path d="M323.193905 957.878857a378.246095 378.246095 0 0 0 357.717333 37.595429 40.033524 40.033524 0 0 0 22.089143-53.296762 42.910476 42.910476 0 0 0-55.491048-21.260191 289.304381 289.304381 0 0 1-111.128381 21.894096 276.48 276.48 0 0 1-281.209904-270.823619A276.577524 276.577524 0 0 1 536.380952 401.115429a276.626286 276.626286 0 0 1 281.356191 270.921142 259.949714 259.949714 0 0 1-27.794286 117.906286 39.936 39.936 0 0 0 19.504762 54.223238 42.910476 42.910476 0 0 0 56.32-18.870857A340.065524 340.065524 0 0 0 902.095238 671.939048a356.59581 356.59581 0 0 0-309.443048-348.013715v-58.514285H663.161905a40.667429 40.667429 0 1 0 0-81.286096h-70.509715V89.380571a42.22781 42.22781 0 0 0-84.406857 0v94.890667H437.930667a40.667429 40.667429 0 1 0 0 81.286095h70.265904v55.198477A358.009905 358.009905 0 0 0 170.666667 671.939048a343.381333 343.381333 0 0 0 90.307047 231.619047z" fill="#E8439D" p-id="8910"></path></svg>