<?xml version="1.0" standalone="no"?><!DOCTYPE svg PUBLIC "-//W3C//DTD SVG 1.1//EN" "http://www.w3.org/Graphics/SVG/1.1/DTD/svg11.dtd"><svg t="1535518661997" class="icon" style="" viewBox="0 0 1024 1024" version="1.1" xmlns="http://www.w3.org/2000/svg" p-id="6388" xmlns:xlink="http://www.w3.org/1999/xlink" width="200" height="200"><defs><style type="text/css"></style></defs><path d="M849.92 476.16V125.44c0-64-51.2-115.2-115.2-115.2H33.28v765.44c0 64 51.2 115.2 115.2 115.2h289.28l7.68-7.68 404.48-407.04zM419.84 844.8H151.04c-38.4 0-69.12-30.72-69.12-69.12V56.32h652.8c38.4 0 69.12 30.72 69.12 69.12v330.24L419.84 844.8z m563.2-225.28L872.96 512l-15.36 15.36-332.8 330.24-2.56 7.68-23.04 115.2-7.68 33.28 158.72-30.72 5.12-5.12L998.4 637.44l-15.36-17.92zM896 673.28L834.56 614.4l35.84-35.84 61.44 58.88-35.84 35.84zM627.2 939.52l-74.24 15.36 15.36-74.24 235.52-232.96 61.44 58.88-238.08 232.96z m-197.12-332.8c-17.92 0-30.72 15.36-30.72 30.72v7.68c0 17.92 15.36 30.72 30.72 30.72 17.92 0 30.72-15.36 30.72-30.72v-7.68c0-17.92-12.8-30.72-30.72-30.72z m7.68-409.6c-97.28-2.56-145.92 51.2-145.92 156.16 0 0 2.56 23.04 28.16 23.04s25.6-23.04 25.6-23.04c-2.56-71.68 30.72-104.96 99.84-99.84 46.08 5.12 69.12 30.72 69.12 76.8-2.56 20.48-20.48 46.08-51.2 79.36-40.96 40.96-61.44 76.8-61.44 107.52v33.28s2.56 20.48 25.6 20.48 25.6-20.48 25.6-20.48v-23.04c0-25.6 17.92-58.88 58.88-94.72 40.96-35.84 61.44-71.68 61.44-99.84-7.68-89.6-51.2-133.12-135.68-135.68z m0 0" fill="#DE5D5B" p-id="6389"></path></svg>