<?xml version="1.0" standalone="no"?><!DOCTYPE svg PUBLIC "-//W3C//DTD SVG 1.1//EN" "http://www.w3.org/Graphics/SVG/1.1/DTD/svg11.dtd"><svg t="1535508860564" class="icon" style="" viewBox="0 0 1024 1024" version="1.1" xmlns="http://www.w3.org/2000/svg" p-id="13404" xmlns:xlink="http://www.w3.org/1999/xlink" width="200" height="200"><defs><style type="text/css"></style></defs><path d="M196.37 250.941c-30.948 0-56.065-25.042-56.065-56.065s25.117-56.065 56.065-56.065 56.065 25.042 56.065 56.065-25.117 56.065-56.065 56.065z m0-186.884c-72.137 0-130.818 58.681-130.818 130.818 0 65.783 103.608 217.906 115.419 234.726 3.513 5.233 9.269 8.223 15.399 8.223 6.13 0 11.886-2.99 15.399-8.223 11.811-16.82 115.419-168.943 115.419-234.726 0.001-72.136-58.681-130.818-130.818-130.818zM324.684 441.188h-2.691c-15.511-2.243-33.116-2.99-50.832-3.364h-0.037c-10.316 0-18.688-8.223-18.688-18.688 0-10.465 8.821-19.436 19.099-18.688 19.884 0 38.61 1.121 55.766 3.738 10.204 1.495 17.305 10.839 15.848 21.305-1.346 8.969-9.345 15.697-18.465 15.697z m124.577 71.39c-6.13 0-12.147-2.99-15.698-8.597-11.998-18.688-27.397-32.518-47.132-42.983-9.12-4.859-12.559-16.446-7.7-25.416 4.859-8.97 16.184-12.708 25.267-7.849 25.155 13.456 45.637 32.144 60.961 56.065 5.569 8.597 3.102 20.183-5.569 25.79-3.14 1.868-6.653 2.99-10.129 2.99z m37.676 142.779c-9.606 0-17.791-7.102-18.614-16.82-2.542-30.275-5.607-52.327-10.017-71.763-2.317-10.092 3.999-19.81 14.054-22.426 9.942-2.243 20.071 4.111 22.389 14.203 4.822 21.305 8.148 44.852 10.802 76.622 0.897 10.465-6.765 19.436-17.044 20.183h-1.57v0.001z m14.838 149.133c-8.671 0-16.483-5.98-18.277-14.951-5.457-26.911-8.111-54.944-9.83-76.622-0.822-10.092 6.84-19.062 17.156-20.183 10.241-0.748 19.286 7.102 20.109 17.193 1.607 20.557 4.149 47.468 9.195 72.137 2.056 10.092-4.485 19.81-14.577 22.052-1.272 0.374-2.505 0.374-3.776 0.374z m75.053 123.343c-3.439 0-6.915-0.748-10.017-2.616-23.809-15.325-42.273-35.135-56.551-60.177-5.121-8.97-1.944-20.183 6.989-25.416 9.008-5.233 20.408-1.869 25.491 7.102 11.213 19.81 25.64 35.134 44.179 46.721 8.709 5.606 11.213 17.193 5.681 25.79-3.55 5.606-9.605 8.596-15.772 8.596z m142.816 33.265c-28.481 0-54.607-2.243-77.669-7.102-10.129-1.869-16.633-11.961-14.614-22.052 2.056-10.092 11.736-16.446 22.052-14.577 20.632 4.111 44.254 6.354 70.231 6.354 10.316 0 18.688 8.223 18.688 18.688 0 10.466-8.372 18.689-18.688 18.689zM794.397 699.461c-51.542 0-93.442-41.862-93.442-93.442s41.899-93.442 93.442-93.442 93.442 41.862 93.442 93.442-41.899 93.442-93.442 93.442z m0-261.637c-92.732 0-168.195 75.501-168.195 168.195 0 85.219 136.537 319.571 152.086 345.734 3.364 5.98 9.494 9.344 16.109 9.344 6.616 0 12.745-3.364 16.109-9.344 15.549-26.164 152.086-260.516 152.086-345.734 0-92.694-75.463-168.195-168.195-168.195z" fill="#f4ea29" p-id="13405"></path></svg>