<?xml version="1.0" standalone="no"?><!DOCTYPE svg PUBLIC "-//W3C//DTD SVG 1.1//EN" "http://www.w3.org/Graphics/SVG/1.1/DTD/svg11.dtd"><svg t="1535518685183" class="icon" style="" viewBox="0 0 1024 1024" version="1.1" xmlns="http://www.w3.org/2000/svg" p-id="7083" xmlns:xlink="http://www.w3.org/1999/xlink" width="200" height="200"><defs><style type="text/css"></style></defs><path d="M686.535111 28.444444H337.464889A309.361778 309.361778 0 0 0 28.444444 337.464889v349.070222A309.304889 309.304889 0 0 0 337.464889 995.555556h349.070222a309.304889 309.304889 0 0 0 309.020445-309.020445V337.521778A309.361778 309.361778 0 0 0 686.535111 28.444444z m248.035556 658.090667a248.035556 248.035556 0 0 1-248.035556 248.035556H337.464889a248.035556 248.035556 0 0 1-248.035556-248.035556V337.521778a248.035556 248.035556 0 0 1 248.035556-247.978667h349.070222a248.035556 248.035556 0 0 1 248.035556 248.035556v348.956444z" fill="#F99403" p-id="7084"></path><path d="M162.360889 552.277333c11.377778 0 20.764444-9.329778 20.764444-20.707555V331.605333a154.396444 154.396444 0 0 1 154.168889-154.168889h360.220445a154.168889 154.168889 0 0 1 99.100444 36.181334 20.707556 20.707556 0 1 0 26.680889-31.687111 195.697778 195.697778 0 0 0-125.781333-45.966223H337.294222A195.868444 195.868444 0 0 0 141.653333 331.662222v199.907556c0 11.377778 9.216 20.707556 20.707556 20.707555zM851.683556 331.662222v360.220445a154.396444 154.396444 0 0 1-154.168889 154.168889H337.294222a154.396444 154.396444 0 0 1-154.168889-154.168889 20.707556 20.707556 0 1 0-41.472 0A195.868444 195.868444 0 0 0 337.351111 887.466667h360.106667a195.868444 195.868444 0 0 0 195.697778-195.697778V331.662222a20.707556 20.707556 0 1 0-41.472 0z" fill="#F99403" p-id="7085"></path><path d="M667.704889 387.413333c0-81.521778-67.128889-147.911111-149.731556-147.911111-82.602667 0-149.674667 66.389333-149.674666 147.911111 0 10.410667 8.590222 18.944 19.171555 18.944 10.524444 0 19.171556-8.533333 19.171556-18.944 0-60.643556 49.948444-109.966222 111.331555-109.966222 61.44 0 111.331556 49.322667 111.331556 109.966222 0 38.855111-25.144889 78.051556-58.538667 91.306667-30.833778 12.231111-71.850667 33.792-71.850666 80.896 0 10.410667 8.533333 18.944 19.171555 18.944 10.581333 0 19.171556-8.533333 19.171556-18.944 0-13.255111 5.688889-29.070222 47.786666-45.738667 47.957333-18.944 82.659556-72.078222 82.659556-126.464z m-149.617778 292.522667a36.010667 36.010667 0 0 0-36.238222 35.84c0 19.740444 16.270222 35.783111 36.238222 35.783111a36.010667 36.010667 0 0 0 36.238222-35.84 36.010667 36.010667 0 0 0-36.238222-35.783111z" fill="#F99403" p-id="7086"></path></svg>