<?xml version="1.0" standalone="no"?><!DOCTYPE svg PUBLIC "-//W3C//DTD SVG 1.1//EN" "http://www.w3.org/Graphics/SVG/1.1/DTD/svg11.dtd"><svg t="1535518507222" class="icon" style="" viewBox="0 0 1024 1024" version="1.1" xmlns="http://www.w3.org/2000/svg" p-id="6072" xmlns:xlink="http://www.w3.org/1999/xlink" width="200" height="200"><defs><style type="text/css"></style></defs><path d="M1011.776 549.12c7.04-4.736 11.328-12.928 11.392-21.76V310.912H0v216.704c0 8.576 4.224 16.64 11.392 21.696a141.44 141.44 0 0 1 61.184 115.712c0 47.488-24.128 89.6-61.184 115.712a26.496 26.496 0 0 0-11.392 21.696v214.016h1023.168v-213.76a26.496 26.496 0 0 0-11.392-21.696 141.44 141.44 0 0 1-61.504-115.968c0-47.68 24.192-89.92 61.44-115.968zM217.92 937.408H144.896V859.52h73.024v78.08z m0-156.096H144.896V703.36h73.024v78.08z m0-156.096H144.896V547.264h73.024V625.28z m0-156.096H144.896V391.168h73.024v78.08z m547.52 117.76v77.44l-145.28-0.192v78.72l145.28 0.064v77.44l-145.28-0.128v83.84H547.52v-83.84l-145.28-0.192v-77.44l145.28 0.128v-78.656l-145.28-0.128v-77.44l91.264 0.128-104.832-111.872 51.264-54.784 143.552 153.088 144.256-153.856 51.264 54.784-105.728 112.768 92.16 0.064zM583.04 0L216.512 234.752h513.984L583.04 0z" fill="#608AFF" p-id="6073"></path></svg>