<?xml version="1.0" standalone="no"?><!DOCTYPE svg PUBLIC "-//W3C//DTD SVG 1.1//EN" "http://www.w3.org/Graphics/SVG/1.1/DTD/svg11.dtd"><svg t="1535458816052" class="icon" style="" viewBox="0 0 1024 1024" version="1.1" xmlns="http://www.w3.org/2000/svg" p-id="8198" xmlns:xlink="http://www.w3.org/1999/xlink" width="200" height="200"><defs><style type="text/css"></style></defs><path d="M637.074286 49.493333A420.376381 420.376381 0 0 1 999.619048 461.092571a405.308952 405.308952 0 0 1-42.715429 181.394286 50.029714 50.029714 0 0 1-65.974857 22.332953 47.445333 47.445333 0 0 1-22.966857-64.170667 309.881905 309.881905 0 0 0 32.768-139.361524 325.485714 325.485714 0 0 0-329.630476-320.414476 325.485714 325.485714 0 0 0-329.484191 320.365714 325.339429 325.339429 0 0 0 329.484191 320.268191 336.11581 336.11581 0 0 0 130.194285-25.892572 50.078476 50.078476 0 0 1 65.048381 25.112381 47.494095 47.494095 0 0 1-25.843809 63.049143 439.442286 439.442286 0 0 1-419.05981-44.470857L229.180952 917.942857l164.815238 7.021714-4.339809 95.963429-286.281143-12.190476v-1.365334l-0.975238 0.292572L24.380952 733.574095l95.524572-24.819809 39.984762 140.336762 88.795428-114.102858a408.283429 408.283429 0 0 1-105.813333-273.94438A421.64419 421.64419 0 0 1 538.185143 45.738667z" fill="#4CAFC4" p-id="8199"></path></svg>