<?xml version="1.0" standalone="no"?><!DOCTYPE svg PUBLIC "-//W3C//DTD SVG 1.1//EN" "http://www.w3.org/Graphics/SVG/1.1/DTD/svg11.dtd"><svg t="1535518426829" class="icon" style="" viewBox="0 0 1026 1024" version="1.1" xmlns="http://www.w3.org/2000/svg" p-id="5570" xmlns:xlink="http://www.w3.org/1999/xlink" width="200.390625" height="200"><defs><style type="text/css"></style></defs><path d="M46.685371 581.258517v164.681363c0 25.651303 21.034068 46.685371 46.68537 46.685371h839.310622c25.651303 0 46.685371-21.034068 46.68537-46.685371v-164.681363c-79.006012-11.286573-140.056112-79.519038-140.056112-161.603206s61.0501-150.316633 140.056112-161.603207V93.370741c0-25.651303-21.034068-46.685371-46.68537-46.68537H93.370741c-25.651303 0-46.685371 21.034068-46.68537 46.68537v164.681363c79.006012 11.286573 140.056112 79.519038 140.056112 161.603207s-61.0501 150.316633-140.056112 161.603206z" fill="#FF0037" p-id="5571"></path><path d="M513.026052 524.825651c9.234469 0 18.981964 2.052104 27.190381 6.669339l72.849699 38.476954c5.130261 2.56513 10.773547 1.026052 14.36473-3.078156 2.052104-2.56513 3.078156-6.156313 2.56513-9.234469L615.631263 476.601202c-3.078156-18.981964 3.078156-37.963928 16.929859-51.302605l58.48497-57.458918c3.078156-3.078156 4.617234-7.695391 3.078156-11.799599-1.539078-4.104208-5.130261-7.182365-9.234468-7.695391l-81.058117-11.799599c-18.981964-2.56513-35.398798-14.877756-43.607214-31.807615L523.286573 230.861723c-3.078156-5.643287-8.208417-6.669339-10.260521-6.669338-2.052104 0-7.695391 0.513026-10.260521 6.669338l-36.42485 73.362726c-8.721443 16.92986-24.625251 29.242485-43.607214 31.807615l-81.058116 11.799599c-4.617234 0.513026-8.208417 3.591182-9.234469 7.695391-1.539078 4.104208-0.513026 8.721443 3.078156 11.799599l58.997996 57.458918c13.851703 13.338677 20.008016 32.833667 16.92986 51.302605l-13.851704 81.058117c-0.513026 3.078156 0 6.669339 2.565131 9.234469 3.591182 4.104208 9.747495 5.643287 14.364729 3.078156l72.849699-38.476954c7.182365-3.591182 16.416834-6.156313 25.651303-6.156313z" fill="#FFFFFF" p-id="5572"></path><path d="M233.426854 140.056112c-12.825651 0-23.086172-10.260521-23.086173-23.086172V46.685371c0-12.825651 10.260521-23.086172 23.086173-23.086173s23.086172 10.260521 23.086172 23.086173v69.771543c0 12.825651-10.260521 23.599198-23.086172 23.599198zM233.426854 816.224449c-12.825651 0-23.086172-10.260521-23.086173-23.086172V723.366733c0-12.825651 10.260521-23.086172 23.086173-23.086172s23.086172 10.260521 23.086172 23.086172v69.771544c0 12.312625-10.260521 23.086172-23.086172 23.086172z" fill="#FFFFFF" p-id="5573"></path></svg>