<?xml version="1.0" standalone="no"?><!DOCTYPE svg PUBLIC "-//W3C//DTD SVG 1.1//EN" "http://www.w3.org/Graphics/SVG/1.1/DTD/svg11.dtd"><svg t="1535508759309" class="icon" style="" viewBox="0 0 1024 1024" version="1.1" xmlns="http://www.w3.org/2000/svg" p-id="12494" xmlns:xlink="http://www.w3.org/1999/xlink" width="200" height="200"><defs><style type="text/css"></style></defs><path d="M1024 512C1024 229.23 794.77 0 512 0S0 229.23 0 512s229.23 512 512 512c113.686 0 221.787-37.18 310.292-104.705 9.774-7.457 11.653-21.426 4.195-31.2-7.457-9.775-21.426-11.653-31.2-4.196-80.813 61.656-179.445 95.58-283.287 95.58C253.819 979.478 44.522 770.18 44.522 512S253.819 44.522 512 44.522c258.181 0 467.478 209.297 467.478 467.478 0 87.047-23.807 170.541-68.16 243.201-6.405 10.494-3.09 24.194 7.403 30.6 10.494 6.405 24.193 3.09 30.599-7.403C997.907 698.8 1024 607.29 1024 512z" fill="#e90dd4" p-id="12495"></path><path d="M368.902 475.576l-30.201 2.61 225.138 175.721 17.558 13.704 13.694-17.565 245.23-314.548c7.56-9.695 5.827-23.683-3.869-31.243-9.696-7.559-23.683-5.827-31.243 3.87L559.98 622.671l31.253-3.862-225.138-175.72-16.314-12.734-13.887 15.343-159.046 175.722c-8.25 9.115-7.55 23.192 1.566 31.442 9.115 8.25 23.192 7.55 31.442-1.566l159.047-175.721z" fill="#e90dd4" p-id="12496"></path></svg>