<?xml version="1.0" standalone="no"?><!DOCTYPE svg PUBLIC "-//W3C//DTD SVG 1.1//EN" "http://www.w3.org/Graphics/SVG/1.1/DTD/svg11.dtd"><svg t="1535518757196" class="icon" style="" viewBox="0 0 1024 1024" version="1.1" xmlns="http://www.w3.org/2000/svg" p-id="8553" xmlns:xlink="http://www.w3.org/1999/xlink" width="200" height="200"><defs><style type="text/css"></style></defs><path d="M654.480372 9.126098A188.748192 188.748192 0 0 1 512.306409 74.69771 187.522554 187.522554 0 0 1 368.906809 9.738916 23.287115 23.287115 0 0 0 344.394057 1.159453a506.188333 506.188333 0 0 0-87.633089 44.122954 517.83189 517.83189 0 0 0-78.440807 61.281881 26.351209 26.351209 0 0 0-7.353826 26.964027 212.648125 212.648125 0 0 1-17.158926 162.396983 194.263561 194.263561 0 0 1-122.563761 97.43819 25.125571 25.125571 0 0 0-18.384565 20.223021 565.018938 565.018938 0 0 0 0 202.230206 25.125571 25.125571 0 0 0 18.384565 20.22302 193.037924 193.037924 0 0 1 122.563761 96.825371 212.648125 212.648125 0 0 1 17.158926 162.396984 26.351209 26.351209 0 0 0 7.353826 26.964027 500.060145 500.060145 0 0 0 166.073896 101.115103 23.287115 23.287115 0 0 0 24.512752-9.192282 186.909736 186.909736 0 0 1 284.347926 0 23.287115 23.287115 0 0 0 25.738389 6.741007 504.349876 504.349876 0 0 0 87.633089-42.284498 518.444709 518.444709 0 0 0 78.440807-61.28188 26.351209 26.351209 0 0 0 7.353826-26.964028 213.260944 213.260944 0 0 1 17.158927-162.396983 194.263561 194.263561 0 0 1 122.563761-97.43819 25.125571 25.125571 0 0 0 18.384564-20.223021 566.244576 566.244576 0 0 0 0-202.230205 26.351209 26.351209 0 0 0 0-7.966645 24.512752 24.512752 0 0 0-15.32047-12.256376 193.037924 193.037924 0 0 1-122.563761-96.825371 212.648125 212.648125 0 0 1-17.158927-162.396983 26.351209 26.351209 0 0 0-7.353826-26.964028A501.285782 501.285782 0 0 0 680.218762 1.159453a23.287115 23.287115 0 0 0-25.73839 7.966645z" fill="#234459" p-id="8554"></path><path d="M512.306409 344.950803a183.845641 183.845641 0 0 0-174.653359 180.168728 169.750809 169.750809 0 0 0 169.750809 175.266179 163.622621 163.622621 0 0 0 30.64094-3.676913 26.351209 26.351209 0 0 0 20.223021-30.028122 23.899933 23.899933 0 0 0-28.189665-20.22302 118.274029 118.274029 0 0 1-143.399601-122.563761 129.304768 129.304768 0 0 1 122.563761-128.691949 122.563761 122.563761 0 0 1 122.563761 122.563761 135.432956 135.432956 0 0 1 0 22.674296 24.512752 24.512752 0 0 0 19.610202 29.415302 25.73839 25.73839 0 0 0 27.576846-17.158926 183.845641 183.845641 0 0 0 3.676913-31.866578 169.13799 169.13799 0 0 0-170.363628-175.878997z" fill="#00A2FF" p-id="8555"></path><path d="M654.480372 9.126098A188.748192 188.748192 0 0 1 512.306409 74.69771 187.522554 187.522554 0 0 1 368.906809 9.738916 23.287115 23.287115 0 0 0 344.394057 1.159453a506.188333 506.188333 0 0 0-87.633089 44.122954 517.83189 517.83189 0 0 0-78.440807 61.281881 26.351209 26.351209 0 0 0-7.353826 26.964027 212.648125 212.648125 0 0 1-17.158926 162.396983 194.263561 194.263561 0 0 1-122.563761 97.43819 25.125571 25.125571 0 0 0-18.384565 20.223021 565.018938 565.018938 0 0 0 0 202.230206 25.125571 25.125571 0 0 0 18.384565 20.22302 193.037924 193.037924 0 0 1 122.563761 96.825371 212.648125 212.648125 0 0 1 17.158926 162.396984 26.351209 26.351209 0 0 0 7.353826 26.964027 500.060145 500.060145 0 0 0 166.073896 101.115103 23.287115 23.287115 0 0 0 24.512752-9.192282 186.909736 186.909736 0 0 1 284.347926 0 23.287115 23.287115 0 0 0 25.738389 6.741007 504.349876 504.349876 0 0 0 87.633089-42.284498 518.444709 518.444709 0 0 0 78.440807-61.28188 26.351209 26.351209 0 0 0 7.353826-26.964028 213.260944 213.260944 0 0 1 17.158927-162.396983 194.263561 194.263561 0 0 1 122.563761-97.43819 25.125571 25.125571 0 0 0 18.384564-20.223021 566.244576 566.244576 0 0 0 0-202.230205 26.351209 26.351209 0 0 0 0-7.966645 24.512752 24.512752 0 0 0-15.32047-12.256376 193.037924 193.037924 0 0 1-122.563761-96.825371 212.648125 212.648125 0 0 1-17.158927-162.396983 26.351209 26.351209 0 0 0-7.353826-26.964028A501.285782 501.285782 0 0 0 680.218762 1.159453a23.287115 23.287115 0 0 0-25.73839 7.966645z m148.302151 122.563761a265.350543 265.350543 0 0 0 25.73839 183.845641 245.127522 245.127522 0 0 0 139.722687 117.048392 511.090883 511.090883 0 0 1 0 151.366245 245.127522 245.127522 0 0 0-140.335506 117.048391 269.640274 269.640274 0 0 0-26.351209 183.845642 460.839741 460.839741 0 0 1-61.28188 43.510135 447.357728 447.357728 0 0 1-64.958793 32.479397 232.871146 232.871146 0 0 0-332.147793 0 452.873097 452.873097 0 0 1-122.563761-75.376713 269.027455 269.027455 0 0 0-25.73839-183.845642A245.127522 245.127522 0 0 0 55.7564 588.239868a509.865246 509.865246 0 0 1 0-151.366245 245.127522 245.127522 0 0 0 140.335506-117.66121 270.253093 270.253093 0 0 0 26.351209-183.845642 462.065379 462.065379 0 0 1 61.28188-43.510135A448.583365 448.583365 0 0 1 346.232513 56.925964 236.548059 236.548059 0 0 0 512.306409 123.723214 237.773696 237.773696 0 0 0 678.993124 56.313146a452.873097 452.873097 0 0 1 123.789399 75.989531z" fill="#00A2FF" p-id="8556"></path></svg>