<?xml version="1.0" standalone="no"?><!DOCTYPE svg PUBLIC "-//W3C//DTD SVG 1.1//EN" "http://www.w3.org/Graphics/SVG/1.1/DTD/svg11.dtd"><svg t="1534813568527" class="icon" style="" viewBox="0 0 1024 1024" version="1.1" xmlns="http://www.w3.org/2000/svg" p-id="1909" xmlns:xlink="http://www.w3.org/1999/xlink" width="200" height="200"><defs><style type="text/css"></style></defs><path d="M511.999488 512m-447.525569 0a447.52557 447.52557 0 1 0 895.051139 0 447.52557 447.52557 0 1 0-895.051139 0Z" fill="#de0716" p-id="1910"></path><path d="M512.001535 788.763394L478.757386 755.055688C355.285261 644.300188 274.548448 569.665351 274.548448 478.174614c0-74.637907 56.988945-132.421962 130.597407-132.421962 40.36636 0 80.733743 19.261693 106.85568 50.561559 26.118867-31.299867 66.48625-50.561559 106.85261-50.561559 73.608461 0 130.596384 57.784054 130.596384 132.421962 0 91.490737-80.733743 166.125575-204.207915 276.881074l-33.241079 33.707706z" fill="#ffffff" p-id="1911"></path></svg>