<?xml version="1.0" standalone="no"?><!DOCTYPE svg PUBLIC "-//W3C//DTD SVG 1.1//EN" "http://www.w3.org/Graphics/SVG/1.1/DTD/svg11.dtd"><svg t="1534814028976" class="icon" style="" viewBox="0 0 1024 1024" version="1.1" xmlns="http://www.w3.org/2000/svg" p-id="7338" xmlns:xlink="http://www.w3.org/1999/xlink" width="200" height="200"><defs><style type="text/css"></style></defs><path d="M479.547475 228.589899c0-7.674828 2.715152-14.227394 8.145454-19.652525 5.425131-5.430303 11.977697-8.145455 19.652526-8.145455s14.222222 2.715152 19.652525 8.145455c5.430303 5.425131 8.140283 11.977697 8.140283 19.652525v304.743434h201.050505c7.674828 0 14.227394 2.715152 19.657697 8.145455 5.430303 5.425131 8.140283 11.972525 8.140282 19.652525s-2.70998 14.227394-8.140282 19.652525c-5.430303 5.430303-11.977697 8.145455-19.657697 8.145455H507.345455c-7.674828 0-14.227394-2.715152-19.652526-8.145455-5.425131-5.425131-8.145455-11.972525-8.145454-19.652525V228.589899z m391.628283-76.541414c99.565899 99.379717 149.343677 219.275636 149.333333 359.692929 0.015515 140.422465-49.762263 260.152889-149.333333 359.175758-99.022869 99.571071-218.748121 149.348848-359.175758 149.333333-140.412121 0.005172-260.313212-49.772606-359.692929-149.333333C53.27903 771.889131 3.759838 652.169051 3.749495 511.741414c0.020687-12.593131 0.491313-25.005253 1.422222-37.236363 0.574061-7.654141 3.76501-13.994667 9.567677-19.006061 5.823354-4.995879 12.551758-7.193859 20.169697-6.593939 7.643798 0.563717 13.979152 3.754667 19.006061 9.567676 4.990707 5.838869 7.188687 12.562101 6.593939 20.169697a441.680162 441.680162 0 0 0-1.163636 33.09899c-0.005172 125.057293 44.078545 231.682586 132.266666 319.870707 88.524283 88.684606 195.320242 133.032081 320.387879 133.047596 125.057293-0.020687 231.677414-44.368162 319.870707-133.047596 88.679434-88.193293 133.026909-194.813414 133.047596-319.870707-0.010343-125.072808-44.357818-231.863596-133.047596-320.387879C743.682586 103.165414 637.062465 59.076525 512 59.086869c-125.010747-0.015515-231.760162 44.032-320.258586 132.137373L191.612121 191.353535a526.480808 526.480808 0 0 0-16.290909 17.19596h50.165657c7.674828 0 14.222222 2.715152 19.652525 8.145454 5.430303 5.425131 8.145455 11.977697 8.145454 19.652526s-2.715152 14.222222-8.145454 19.652525c-5.425131 5.430303-11.977697 8.145455-19.652525 8.145455H117.139394a27.689374 27.689374 0 0 1-9.69697-1.680809 25.574141 25.574141 0 0 1-6.464646-3.490909 30.223515 30.223515 0 0 1-7.49899-7.886868l-2.327273-4.783839a29.892525 29.892525 0 0 1-1.422222-5.430303 12.277657 12.277657 0 0 1-0.129293-1.034343l-0.258586-3.10303V118.690909c0-7.674828 2.715152-14.227394 8.145455-19.652525 5.425131-5.430303 11.977697-8.145455 19.652525-8.145455s14.227394 2.715152 19.652525 8.145455c5.425131 5.425131 8.145455 11.977697 8.145455 19.652525v40.856566c2.384162-2.451394 4.799354-4.90796 7.240404-7.369697l0.129293-0.129293C251.69196 53.025616 371.587879 3.506424 512 3.490909c140.422465 0.010343 260.147717 49.524364 359.175758 148.557576z" p-id="7339" fill="#f4ea2a"></path></svg>